<svg preserveAspectRatio="xMidYMid meet" data-bbox="40 102 621 496" version="1.1" xmlns="http://www.w3.org/2000/svg" viewBox="40 102 621 496" role="presentation" aria-hidden="true"><g><path fill="#9D6200" class="cls-1" d="M661,316c0-58.657-44.524-97-102-97H528V167H639l-34.736-32.176L637,102H521V219l-278.335-.294C191.575,218.707,142,267.614,142,325V474H60.978L61,518H397v80h73V518H661V316ZM528,109l90.875,0.294-25.568,25.53L618,160H528V109ZM149,325c0-53.369,44.241-98.782,97.689-98.782S346,271.631,346,325l-0.125,149H149V325ZM68,511V481H346v30H68Zm395,80H404V518h59v73Zm191-80H353V321c0-44.3-29.417-80.009-69-95H521v37c-18.244,1.578-33.277,15.812-33.277,34.434a35.719,35.719,0,0,0,71.438,0c0-18.218-13.477-32.311-31.161-34.434V226h31c53.448,0,95,37.631,95,91V511ZM528,271c13.653,2.064,23.863,12.237,23.863,26.434a28.421,28.421,0,0,1-56.841,0c0-14.6,11.763-24.887,25.978-26.434v27h7V271ZM251,146h-7v29h7V146Zm-78.071,50.411-17.836-30.848-6.322,3.644,17.836,30.848Zm-56.777,54.024-30.894-17.81-3.649,6.312,30.894,17.81ZM98,335v-7H61v7H98ZM209.821,182.181l-15.606-58.162-7.049,1.886,15.606,58.162Zm-68.844,37.513-42.64-42.577-5.16,5.153,42.64,42.576Zm-40.84,66.854L41.892,270.966,40,278.005l58.246,15.582Zm-1.889,78.289L40,380.415l1.889,7.046,58.245-15.579Z"></path></g></svg>