<svg preserveAspectRatio="xMidYMid meet" data-bbox="16 24 168 152" version="1.1" xmlns="http://www.w3.org/2000/svg" viewBox="16 24 168 152" role="presentation" aria-hidden="true"><g><path fill="#9D6200" d="M16,76v100h168V76H16z M181,78l-79.9,54.5L19,78H181z M18,174V80l83.2,55L182,80v94H18z"></path><path fill="#9D6200" d="M33.7,48.7c0.1,0.2,0.2,0.3,0.2,0.3l0,0c5.6,7.1,36.7,11,66.1,11c29.6,0,60.8-3.9,66.1-11.1l0,0c0,0,0.1-0.1,0.1-0.2
	c0.4-0.6,0.7-1.3,0.7-2c0.3-1.1,0.6-2.6,0.6-4.2c0-2.6-0.6-4.5-0.6-4.6C164,27.6,129,24,100,24c-28.7,0-63.3,3.6-66.9,13.7
	c-0.2,0.5-0.7,1.7-0.7,4.2c0,2.2,0.3,3.8,0.6,4.9C33.1,47.5,33.3,48.1,33.7,48.7z M100,58c-37,0-60.7-5.9-64.1-10.3l0.1-0.1
	c0,0-0.2-0.4-0.5-1.3c0.1-0.7,0.7-1.3,1.8-2c0.1,0.1,0.2,0.2,0.4,0.3c10,5,33.2,7.3,62.3,7.3c29.7,0,52.4-2.5,62.2-7.9
	c1.4,0.8,2.2,1.6,2.3,2.4c-0.2,0.8-0.5,1.4-0.5,1.4C160.3,52.2,136.6,58,100,58z M40,43c8.8-3.7,30.1-7.1,60-7.1
	c29.2,0,50.2,3.2,59.4,6.8c-10.1,4.7-32,7.2-59.4,7.2C72.4,50,50.3,47.6,40,43z M35.3,39L35.3,39l0.1-0.4C37.3,32.8,58.3,26,100,26
	c40.1,0,62.9,6.6,64.6,12.6c0,0,0.5,1.7,0.5,3.9c0,0.3,0,0.5,0,0.8c-7.6-6.5-37.1-9.3-65-9.3c-27.9,0-57.3,2.9-65,9.3
	c0-0.5-0.1-0.8-0.1-1.4C34.9,39.7,35.3,39,35.3,39z"></path></g></svg>